<svg xmlns="http://www.w3.org/2000/svg" viewBox="0 0 512 512" width="512" height="512">
  <g id="Cupid">
    <path fill="#fdd8b1" d="M256 128c-35.3 0-64 28.7-64 64s28.7 64 64 64 64-28.7 64-64-28.7-64-64-64z"/>
    <path fill="#fcc696" d="M256 224c-17.7 0-32 14.3-32 32s14.3 32 32 32 32-14.3 32-32-14.3-32-32-32z"/>
    <path fill="#ffd043" d="M256 64c-53 0-96 43-96 96 0 16.5 4.2 32 11.5 45.6 15.6 29 46.9 49.3 83.1 50.3 37.3 1 70.3-19 86.8-49.2C348.6 193.3 352 177.1 352 160c0-53-43-96-96-96z"/>
    <path fill="#ffb429" d="M256 96c-35.3 0-64 28.7-64 64 0 11.5 3.1 22.3 8.5 31.7 10.9 19.3 31.4 32.3 55.5 32.3s44.6-13 55.5-32.3c5.4-9.4 8.5-20.2 8.5-31.7 0-35.3-28.7-64-64-64z"/>
    <path fill="#fdd8b1" d="M208 320c-26.5 0-48 21.5-48 48 0 16.5 8.4 31.1 21.1 39.8L160 480l32 32 32-32-16-64c8.8-8.8 14.3-21 14.3-34.5 0-26.5-21.5-48-48-48z"/>
    <path fill="#fcc696" d="M208 352c-8.8 0-16 7.2-16 16 0 5.4 2.7 10.2 6.8 13.1l-10.4 41.5 21.3 21.3 21.3-21.3-10.4-41.5c4.1-2.9 6.8-7.7 6.8-13.1 0-8.8-7.2-16-16-16z"/>
    <path fill="#fdd8b1" d="M304 320c-26.5 0-48 21.5-48 48 0 13.5 5.5 25.7 14.3 34.5l-16 64 32 32 32-32-21.1-72.2C309.6 399.1 318 384.5 318 368c0-26.5-21.5-48-48-48z"/>
    <path fill="#fcc696" d="M304 352c-8.8 0-16 7.2-16 16 0 5.4 2.7 10.2 6.8 13.1l-10.4 41.5 21.3 21.3 21.3-21.3-10.4-41.5c4.1-2.9 6.8-7.7 6.8-13.1 0-8.8-7.2-16-16-16z"/>
    <path fill="#fff" d="M256 320c-44.2 0-80 35.8-80 80h160c0-44.2-35.8-80-80-80z"/>
    <path fill="#e2e8f0" d="M256 352c-26.5 0-48 21.5-48 48h96c0-26.5-21.5-48-48-48z"/>
    <path fill="#fdd8b1" d="M128 256c-17.7 0-32 14.3-32 32s14.3 32 32 32h48v-64h-48z"/>
    <path fill="#fcc696" d="M128 272c-8.8 0-16 7.2-16 16s7.2 16 16 16h32v-32h-32z"/>
    <path fill="#fdd8b1" d="M384 256h-48v64h48c17.7 0 32-14.3 32-32s-14.3-32-32-32z"/>
    <path fill="#fcc696" d="M384 272h-32v32h32c8.8 0 16-7.2 16-16s-7.2-16-16-16z"/>
    <path fill="#f9a8d4" d="M160 192c-26.5 0-48 21.5-48 48s21.5 48 48 48h192c26.5 0 48-21.5 48-48s-21.5-48-48-48H160z"/>
    <path fill="#f472b6" d="M160 224c-8.8 0-16 7.2-16 16s7.2 16 16 16h192c8.8 0 16-7.2 16-16s-7.2-16-16-16H160z"/>
    <path fill="#cbd5e1" d="M128 64c-35.3 0-64 28.7-64 64s28.7 64 64 64h48v-64c0-35.3-28.7-64-64-64z"/>
    <path fill="#94a3b8" d="M128 96c-17.7 0-32 14.3-32 32s14.3 32 32 32h32v-32c0-17.7-14.3-32-32-32z"/>
    <path fill="#cbd5e1" d="M384 64c-35.3 0-64 28.7-64 64v64h48c35.3 0 64-28.7 64-64s-28.7-64-64-64z"/>
    <path fill="#94a3b8" d="M384 96c-17.7 0-32 14.3-32 32v32h32c17.7 0 32-14.3 32-32s-14.3-32-32-32z"/>
    <path fill="#fca5a5" d="M224 224c0 17.7-14.3 32-32 32s-32-14.3-32-32 14.3-32 32-32 32 14.3 32 32z"/>
    <path fill="#fca5a5" d="M320 224c0 17.7-14.3 32-32 32s-32-14.3-32-32 14.3-32 32-32 32 14.3 32 32z"/>
    <path fill="#fb7185" d="M224 288c0 17.7-14.3 32-32 32s-32-14.3-32-32h64z"/>
    <path fill="#fff" d="M192 192c0 8.8-7.2 16-16 16s-16-7.2-16-16 7.2-16 16-16 16 7.2 16 16z"/>
    <path fill="#fff" d="M320 192c0 8.8-7.2 16-16 16s-16-7.2-16-16 7.2-16 16-16 16 7.2 16 16z"/>
    <path fill="#334155" d="M184 192c0 4.4-3.6 8-8 8s-8-3.6-8-8 3.6-8 8-8 8 3.6 8 8z"/>
    <path fill="#334155" d="M312 192c0 4.4-3.6 8-8 8s-8-3.6-8-8 3.6-8 8-8 8 3.6 8 8z"/>
    <path fill="#fb7185" d="M256 288c-17.7 0-32-14.3-32-32h64c0 17.7-14.3 32-32 32z"/>
  </g>
</svg>
