<svg xmlns="http://www.w3.org/2000/svg" viewBox="0 0 512 512" width="512" height="512">
  <g id="Rocket">
    <path fill="#e2e8f0" d="M366.5 145.5L256 35 145.5 145.5C132.8 158.2 128 176.7 131.9 194.2l20 89.9 208.2.1 20-89.9c4-17.5-.8-36-13.6-48.8z"/>
    <path fill="#cbd5e1" d="M380.1 145.5c-12.8 12.8-17.6 31.3-13.6 48.8l20 89.9-130.5.1L256 35l124.1 110.5z"/>
    <path fill="#ef4444" d="M380.1 145.5c-12.8-12.8-17.6-31.3-13.6-48.8l10.3-46.3c3.5-15.6 19.3-25.2 34.6-21.1 15.6 4.1 25.1 20.3 21.1 35.8l-10.3 46.3c-4.1 17.5-17.6 31.2-34.6 33.1l-7.5 1z"/>
    <path fill="#b91c1c" d="M380.1 145.5c-12.8-12.8-17.6-31.3-13.6-48.8l10.3-46.3c3.5-15.6 19.3-25.2 34.6-21.1-7-19-27-31-48.5-31l-10.3 46.3c-4.1 17.5-17.6 31.2-34.6 33.1l-7.5 1 69.6 66.8z"/>
    <path fill="#ef4444" d="M131.9 145.5c12.8-12.8 17.6-31.3 13.6-48.8L135.2 50.4c-3.5-15.6-19.3-25.2-34.6-21.1-15.6 4.1-25.1 20.3-21.1 35.8l10.3 46.3c4.1 17.5 17.6 31.2 34.6 33.1l7.5 1z"/>
    <path fill="#b91c1c" d="M131.9 145.5c12.8-12.8 17.6-31.3 13.6-48.8L135.2 50.4c-3.5-15.6-19.3-25.2-34.6-21.1 7-19 27-31 48.5-31l10.3 46.3c4.1 17.5 17.6 31.2 34.6 33.1l7.5 1-69.6 66.8z"/>
    <path fill="#3b82f6" d="M256 128c-35.3 0-64 28.7-64 64s28.7 64 64 64 64-28.7 64-64-28.7-64-64-64z"/>
    <path fill="#1d4ed8" d="M256 160c-17.7 0-32 14.3-32 32s14.3 32 32 32 32-14.3 32-32-14.3-32-32-32z"/>
    <path fill="#64748b" d="M151.9 284.2L256 384l104.1-99.8-208.2-.1z"/>
    <path fill="#475569" d="M256 384l104.1-99.8-104.1-.1z"/>
    <path fill="#fbbf24" d="M256 480c-26.5 0-48-21.5-48-48l16-48h64l16 48c0 26.5-21.5 48-48 48z"/>
    <path fill="#f59e0b" d="M256 480c-26.5 0-48-21.5-48-48l16-48h32l16 48c0 26.5-21.5 48-48 48z"/>
    <path fill="#f87171" d="M256 35L145.5 145.5c-4.4 4.4-7.8 9.5-10.2 15l241.4.1c-2.4-5.5-5.8-10.6-10.2-15L256 35z"/>
  </g>
</svg>
