<svg xmlns="http://www.w3.org/2000/svg" viewBox="0 0 512 512" width="512" height="512">
  <g id="Santa_Sleigh">
    <path fill="#5c2d16" d="M125.7 348.6c1.1 5.3 4.2 10.1 8.8 13.5l19.5 14.5-5.9 45.4-8.8 67.8c-.8 6.4 3.7 12.3 10.1 13.1 6.4.8 12.3-3.7 13.1-10.1l7.8-60.2 27.5-6.6c2.4-.6 4.7-1.7 6.6-3.4 1.8-1.7 3.2-3.8 3.8-6.1l11.4-44.5c1.4-5.3-.2-11.1-4.2-14.8-4-3.7-9.8-4.8-15-2.8L174 364.1l-14.8-11c-2.3-1.7-5-2.6-7.8-2.6h-15.5c-4.4 0-8.5 2.1-11.1 5.7-2.3 3.4-2.8 7.6-1.5 11.5l2.4 10.9z"/>
    <path fill="#8a4b27" d="M153.9 376.6l19.5-14.5c4.6-3.4 7.7-8.2 8.8-13.5l2.4-10.9c1.3-3.9.8-8.1-1.5-11.5-2.6-3.6-6.7-5.7-11.1-5.7h-15.5c-2.8 0-5.5.9-7.8 2.6L134 334l-26.4-9.8c-5.2-1.9-11-.9-15 2.8-4 3.7-5.6 9.5-4.2 14.8l11.4 44.5c.7 2.4 2 4.5 3.8 6.1 1.9 1.7 4.2 2.8 6.6 3.4l27.5 6.6 7.8 60.2c.8 6.4 6.7 10.9 13.1 10.1 6.4-.8 10.9-6.7 10.1-13.1l-8.8-67.8-5.9-45.2z"/>
    <path fill="#5c2d16" d="M239.5 304.5c1.1 5.3 4.2 10.1 8.8 13.5l19.5 14.5-5.9 45.4-8.8 67.8c-.8 6.4 3.7 12.3 10.1 13.1 6.4.8 12.3-3.7 13.1-10.1l7.8-60.2 27.5-6.6c2.4-.6 4.7-1.7 6.6-3.4 1.8-1.7 3.2-3.8 3.8-6.1l11.4-44.5c1.4-5.3-.2-11.1-4.2-14.8-4-3.7-9.8-4.8-15-2.8l-26.4 9.8-14.8-11c-2.3-1.7-5-2.6-7.8-2.6h-15.5c-4.4 0-8.5 2.1-11.1 5.7-2.3 3.4-2.8 7.6-1.5 11.5l2.4 10.9z"/>
    <path fill="#8a4b27" d="M267.7 332.5l19.5-14.5c4.6-3.4 7.7-8.2 8.8-13.5l2.4-10.9c1.3-3.9.8-8.1-1.5-11.5-2.6-3.6-6.7-5.7-11.1-5.7h-15.5c-2.8 0-5.5.9-7.8 2.6L247.7 290l-26.4-9.8c-5.2-1.9-11-.9-15 2.8-4 3.7-5.6 9.5-4.2 14.8l11.4 44.5c.7 2.4 2 4.5 3.8 6.1 1.9 1.7 4.2 2.8 6.6 3.4l27.5 6.6 7.8 60.2c.8 6.4 6.7 10.9 13.1 10.1 6.4-.8 10.9-6.7 10.1-13.1l-8.8-67.8-5.9-45.3z"/>
    <path fill="#a3572b" d="M157.9 292.9c32.7-36.8 77-51.4 113.8-54 13.8-1 26.6-.7 37.4 1.3-12.7-43-34.7-65.7-61.9-63-27.1 2.7-49.1 29.8-61.9 72.8 0 0-4.1-11.6-4.2-11.5-1.5-5.9-7.5-9.4-13.4-7.9-5.9 1.5-9.4 7.5-7.9 13.4 1.5 5.9 3.5 12.3 5.4 18.2-2.5 10.3-4.1 21.1-5.1 31.7-.1.4-1 9-2.2 22.8-.1.7-.1 1.3-.2 2.1l-.1-.4-.8-.4-.4.8z"/>
    <path fill="#5c2d16" d="M260.6 137.9c1.9-3.2 4.2-6.5 6.8-9.8-1.5-.7-3.1-1.3-4.8-1.6-11.6-2.5-23.2 4.9-25.7 16.5-1.8 8.1 1.4 16.3 7.3 21.6 3-3.9 6.2-7.8 9.5-11.5-.1-1.2.6-2.4 1.3-3.2l5.6-12z"/>
    <path fill="#f2f2f2" d="M309.2 191.6c4.6-1.5 9-4.1 12.4-7.9.6-.7 1.4-.9 2.2-.6.8.3 1.2 1.1 1 1.9-2.1 12.5-9.6 23.3-21.6 27.6-5.8 2.1-11.4 1-15.6-2.2-2.3 2.1-5.2 3.6-8.5 4.3-12.2 2.5-24.3-5-26.8-16.7-.4-1.9.9-3.7 2.8-4.1 1.9-.4 3.7.9 4.1 2.8 1.6 7.6 9.4 12.5 17.3 10.9s12.5-9.4 10.9-17.3c-.6-3-.2-5.7 1.1-7.8-.5-.8-.7-1.6-.7-2.4-.4-4.8.9-9.5 4.1-13.4-3.5-3.3-5-8-4-12.9 1.1-5.1 5-9.2 10.1-10.4 4.5-1 8.8.4 12.1 3.5 1.4-1.3 3.3-2.1 5.3-2.5 6.8-1.4 13.3 2.6 15 9s-2 12.8-8.1 15.3c-.3 1.2-.8 2.3-1.6 3.3l1.8 1.9-3.3 7.7z"/>
    <path fill="#5c2d16" d="M321.4 179.7c-4.4 8.7-14.7 12.7-23.7 9.5-.7-.3-1-.6-1.3-.9 1.5-.4 3.1-.7 4.7-.6 4.9.2 9.5 2.1 13.5 5.5.9-1.9 1.5-4 1.5-6.3.1-7.8-6.1-14.3-13.9-14.3H299c.9 2.5 2.5 5.2 5 7.6 1.3.8 2 2.3 1.8 3.8-1.8-1.7-3.2-3.8-3.8-6.1-2-7.5-6-14-11.1-18.7.6-.8 1.4-1.6 2.3-2.1l-.8-2-3-1c-.5-.2-1.1-.3-1.6-.4-1.1.9-2.2 1.8-3.2 2.9-1.5 1.5-3 3-4.4 4.7 2.2 1.5 5.2 2.7 8.3 3.1.5.1 1 .5 1.1 1l-.4-1.6-1.5.2c-5.8.9-10.3 5.4-11.4 11.2-.5 2.3-.2 4.6.6 6.6.6-4.5 2.7-8.5 6-11.5l1.6 1.4c-2.3 3.4-2.8 7.6-1.5 11.5l2.4 10.9-12.7 5.1c-1.3-4.4-1.7-9.4-1.1-14.6l-5.6 12 11.5 19.3 5.8 44.9-11 12.2c-.4.4-.7.9-1 1.4-1 1.6-1.5 3.5-1.5 5.3v27c0 4.1 2.3 7.8 5.8 9.7l30.9 16.5c3.5 1.9 7.8 1.9 11.3 0l31-16.5c3.5-1.9 5.8-5.6 5.8-9.7V250c0-1.9-.5-3.8-1.5-5.3-.3-.5-.6-1-1-1.4l-11-12.2 5.8-44.9 11.5-19.3-15.6-32.5c-.8-2-2.3-3.6-4.1-4.7l.1-.2z"/>
    <path fill="#e65a5a" d="M495.2 419.7H384c-31 0-56.2-25.2-56.2-56.2v-10.8c0-8.6 7-15.6 15.6-15.6s15.6 7 15.6 15.6v10.8c0 13.8 11.2 25 25 25h111.2c8.6 0 15.6 7 15.6 15.6s-7 15.6-15.6 15.6z"/>
    <path fill="#e65a5a" d="M371.7 448H122.9C55.2 448 0 392.8 0 325.1v-6.9c0-8.6 7-15.6 15.6-15.6s15.6 7 15.6 15.6v6.9c0 50.5 41.1 91.6 91.6 91.6h248.8c8.6 0 15.6 7 15.6 15.6s-6.9 15.7-15.5 15.7z"/>
    <circle fill="#f2f2f2" cx="304.8" cy="275.4" r="8"/>
    <circle fill="#f2f2f2" cx="304.8" cy="235.4" r="8"/>
    <path fill="#cc1c1c" d="M298.1 161.4c1.1-5.1 5-9.2 10.1-10.4 4.5-1 8.8.4 12.1 3.5 1.4-1.3 3.3-2.1 5.3-2.5 6.8-1.4 13.3 2.6 15 9s-2 12.8-8.1 15.3c-.3 1.2-.8 2.3-1.6 3.3l1.8 1.9-3.3 7.7-15.6-32.5c-.8-2-2.3-3.6-4.1-4.7l-15.7-3.1c1.5 4.3 4 8 7.3 10.8.6.5 1.2 1 1.8 1.5l-5-19.8z"/>
    <path fill="#ffb885" d="M322.9 161.1c2 7.5-2.4 15.2-9.9 17.2-7.5 2-15.2-2.4-17.2-9.9-2-7.5 2.4-15.2 9.9-17.2 7.5-2 15.1 2.4 17.2 9.9z"/>
    <path fill="#5c2d16" d="M303.4 163.6c-1.3 2.1-4 2.8-6.1 1.5-2.1-1.3-2.8-4-1.5-6.1 1.3-2.1 4-2.8 6.1-1.5 2.1 1.3 2.8 4 1.5 6.1z"/>
    <circle fill="#f2f2f2" cx="332.9" cy="144.3" r="7.4"/>
    <path fill="#db3030" d="M495.2 249.2H412c-49.8 0-90.4-40.6-90.4-90.4v-40.2c0-8.6 7-15.6 15.6-15.6s15.6 7 15.6 15.6v40.2c0 32.6 26.5 59.2 59.2 59.2h83.2c8.6 0 15.6 7 15.6 15.6s-7 15.6-15.6 15.6z"/>
    <path fill="#db3030" d="M451.7 348H331.4C260 348 202 290 202 218.6v-21.7c0-8.6 7-15.6 15.6-15.6s15.6 7 15.6 15.6v21.7c0 54.2 44.1 98.4 98.3 98.4h120.3c8.6 0 15.6 7 15.6 15.6.1 8.6-6.9 15.4-15.7 15.4z"/>
    <path fill="#f2f2f2" d="M371.4 114.7h-6.7c-5 0-9-4-9-9s4-9 9-9h6.7c5 0 9 4 9 9s-4 9-9 9zM425.4 114.7h-11.7c-5 0-9-4-9-9s4-9 9-9h11.7c5 0 9 4 9 9s-4 9-9 9zM484.4 114.7H471c-5 0-9-4-9-9s4-9 9-9h13.4c5 0 9 4 9 9s-4 9-9 9zM388.9 448h-11.7c-5 0-9-4-9-9s4-9 9-9h11.7c5 0 9 4 9 9s-4 9-9 9z"/>
  </g>
</svg>
