<svg xmlns="http://www.w3.org/2000/svg" viewBox="0 0 260 300" width="260" height="300">
  <rect width="260" height="300" fill="none"/>
  <!-- Bank building -->
  <polygon points="130,40 40,90 220,90" fill="#1b2a4a" opacity="0.9"/>
  <rect x="55" y="90" width="150" height="120" fill="#1b2a4a" opacity="0.8"/>
  <!-- Pillars -->
  <rect x="70" y="95" width="16" height="110" rx="3" fill="#fff" opacity="0.9"/>
  <rect x="105" y="95" width="16" height="110" rx="3" fill="#fff" opacity="0.9"/>
  <rect x="140" y="95" width="16" height="110" rx="3" fill="#fff" opacity="0.9"/>
  <rect x="175" y="95" width="16" height="110" rx="3" fill="#fff" opacity="0.9"/>
  <!-- Door -->
  <rect x="112" y="165" width="36" height="45" rx="4" fill="#E8652B" opacity="0.8"/>
  <!-- Steps -->
  <rect x="45" y="210" width="170" height="10" rx="2" fill="#1b2a4a" opacity="0.6"/>
  <rect x="35" y="220" width="190" height="10" rx="2" fill="#1b2a4a" opacity="0.4"/>
  <!-- Coins -->
  <circle cx="80" cy="260" r="18" fill="#FFC107" opacity="0.8"/>
  <text x="80" y="265" text-anchor="middle" fill="#8B6914" font-size="14" font-weight="bold">฿</text>
  <circle cx="130" cy="265" r="18" fill="#FFC107" opacity="0.7"/>
  <text x="130" y="270" text-anchor="middle" fill="#8B6914" font-size="14" font-weight="bold">฿</text>
  <circle cx="180" cy="260" r="18" fill="#FFC107" opacity="0.8"/>
  <text x="180" y="265" text-anchor="middle" fill="#8B6914" font-size="14" font-weight="bold">฿</text>
</svg>
